
        <svg xmlns="http://www.w3.org/2000/svg" xmlns:xlink="http://www.w3.org/1999/xlink" version="1.1" width="3186.3426003835284" height="2571.5278852926904" viewBox="0 0 3186.3426003835284 2571.5278852926904">
			
			<g transform="scale(9.317130019176414) translate(10, 10)">
				<defs id="SvgjsDefs2992"><linearGradient id="SvgjsLinearGradient3001"><stop id="SvgjsStop3002" stop-color="#147d6c" offset="0"/><stop id="SvgjsStop3003" stop-color="#1effff" offset="1"/></linearGradient><linearGradient id="SvgjsLinearGradient3004"><stop id="SvgjsStop3005" stop-color="#147d6c" offset="0"/><stop id="SvgjsStop3006" stop-color="#1effff" offset="1"/></linearGradient><linearGradient id="SvgjsLinearGradient3007"><stop id="SvgjsStop3008" stop-color="#147d6c" offset="0"/><stop id="SvgjsStop3009" stop-color="#1effff" offset="1"/></linearGradient><linearGradient id="SvgjsLinearGradient3010"><stop id="SvgjsStop3011" stop-color="#147d6c" offset="0"/><stop id="SvgjsStop3012" stop-color="#1effff" offset="1"/></linearGradient></defs><g id="SvgjsG2993" featureKey="rootContainer" transform="matrix(1,0,0,1,0,0)" fill="#fff"><path xmlns="http://www.w3.org/2000/svg" fill-rule="evenodd" d="M5,65 L161,0 L317, 65 L161, 10 z M5,176 L161,256 L317,171 L161, 246 z"/></g><g id="SvgjsG2994" featureKey="symbolFeature-0" transform="matrix(0.7257102721614892,0,0,0.7257102721614892,125.37160574390579,68.57462257186451)" fill="#fff"><path xmlns="http://www.w3.org/2000/svg" d="M92.969,54.902c-3.984-3.541-6.641-4.871-15.052-6.641c-8.413-1.77-13.503-5.312-13.503-5.312L41.835,31.218  c0,0-3.763-3.321-5.312-0.665c-1.55,2.656-3.763,5.755-3.763,5.755s-13.28,10.403-19.479,1.329  c-4.206-5.534-6.641-0.665-6.641-0.665L5.09,60.879c0,0-1.549,5.312,8.19,6.42c9.739,1.105,11.51,1.328,11.51,1.328  s3.736,0.305,6.198-1.771c0.349-0.234,0.76-0.43,1.196-0.607l7.349-23.67l4.437,1.816l-6.648,20.959  c1.009-0.012,2.052,0.053,3.091,0.182l6.203-20.039l4.36,1.729l-6.037,19.363c0.988,0.355,1.9,0.783,2.698,1.285l6.067-19.577  l4.332,1.728l-6.224,20.011c2.695,0.695,5.297,0.361,5.297,0.361l17.044-0.662c0,0,14.831-2.436,17.487-4.207  S96.952,58.443,92.969,54.902z M41.393,40.293c-1.283,0-2.324-1.04-2.324-2.324c0-1.284,1.041-2.325,2.324-2.325  c1.284,0,2.324,1.041,2.324,2.325C43.717,39.254,42.676,40.293,41.393,40.293z M48.366,42.95c-1.284,0-2.324-1.04-2.324-2.324  s1.04-2.325,2.324-2.325c1.283,0,2.325,1.041,2.325,2.325S49.648,42.95,48.366,42.95z M55.338,45.938  c-1.283,0-2.325-1.041-2.325-2.325s1.042-2.324,2.325-2.324s2.324,1.04,2.324,2.324S56.621,45.938,55.338,45.938z M61.979,48.926  c-1.283,0-2.324-1.04-2.324-2.324c0-1.284,1.041-2.324,2.324-2.324c1.284,0,2.324,1.04,2.324,2.324  C64.303,47.887,63.263,48.926,61.979,48.926z"/></g><g id="SvgjsG2995" featureKey="nameLeftFeature-0" transform="matrix(1.86611371033811,0,0,1.86611371033811,-0.7464458845598053,128.80331773797133)" fill="#fff"><path d="M12.62 20 l-1.78 -3.98 l-8.04 0 l-1.78 3.98 l-0.62 0 l6.26 -14 l0.3 0 l6.28 14 l-0.62 0 z M3.04 15.46 l7.56 0 l-3.78 -8.46 z M29.060000000000002 6 l0 14 l-0.58 0 l0 -12.7 l-6.34 12.7 l-0.38 0 l-6.34 -12.72 l0 12.72 l-0.58 0 l0 -14 l0.58 0 l6.54 13.1 l6.52 -13.1 l0.58 0 z M37.36 12.36 c2.14 0.42 3.18 2.14 3.18 3.74 c0 2.38 -1.6 3.9 -5.04 3.9 l-4.04 0 l0 -14 l4.4 0 c2.62 0 3.88 1.5 3.88 3.28 c0 1.18 -0.58 2.48 -2.38 3.08 z M35.86 6.5600000000000005 l-3.82 0 l0 5.52 l3.82 0 c1.92 0 3.32 -1.14 3.32 -2.78 c0 -1.68 -1.22 -2.74 -3.32 -2.74 z M35.52 19.44 c3.1 0 4.44 -1.24 4.44 -3.32 c0 -1.78 -1.34 -3.48 -4.16 -3.48 l-3.76 0 l0 6.8 l3.48 0 z M53.46 20 l-1.78 -3.98 l-8.04 0 l-1.78 3.98 l-0.62 0 l6.26 -14 l0.3 0 l6.28 14 l-0.62 0 z M43.88 15.46 l7.56 0 l-3.78 -8.46 z M65.34 20 l-0.72 0 l-4.08 -5.38 c-0.2 0.02 -0.4 0.02 -0.6 0.02 l-3.68 0 l0 5.36 l-0.58 0 l0 -14 l4.26 0 c3.14 0 4.8 1.94 4.8 4.3 c0 2.08 -1.22 3.8 -3.56 4.24 z M56.260000000000005 14.04 l3.76 0 c2.52 0 4.14 -1.46 4.14 -3.74 c0 -2.32 -1.62 -3.72 -4.14 -3.72 l-3.76 0 l0 7.46 z M78.56 20 l-1.78 -3.98 l-8.04 0 l-1.78 3.98 l-0.62 0 l6.26 -14 l0.3 0 l6.28 14 l-0.62 0 z M68.98 15.46 l7.56 0 l-3.78 -8.46 z"/></g><g id="SvgjsG2996" featureKey="nameRightFeature-0" transform="matrix(1.86611371033811,0,0,1.86611371033811,151.7606621238625,128.80331773797133)" fill="#fff"><path d="M12.22 20 l-3.1 0 l-2.98 -4.66 l-0.04 0 l-1.98 0 l0 4.66 l-2.92 0 l0 -14 l4.9 0 c3.14 0 5.18 1.9 5.18 4.76 c0 1.9 -0.92 3.32 -2.48 4.04 z M4.12 8.68 l0 4.14 l1.8 0 c1.44 0 2.44 -0.56 2.44 -2.06 c0 -1.48 -1 -2.08 -2.44 -2.08 l-1.8 0 z M33.36 6 l-4.6 14 l-2.1 0 l-3.28 -8.86 l-3.26 8.86 l-2.1 0 l-4.6 -14 l3.08 0 l2.68 8.3 l3.06 -8.3 l2.3 0 l3.06 8.3 l2.68 -8.3 l3.08 0 z M43.620000000000005 20 l-1.06 -2.5 l-6.76 0 l-1.06 2.5 l-3.1 0 l6.22 -14 l2.64 0 l6.24 14 l-3.12 0 z M36.82 15.120000000000001 l4.72 0 l-2.36 -5.54 z M57.5 6 l2.92 0 l0 14 l-2.22 0 l-6.94 -8.68 l0 8.68 l-2.92 0 l0 -14 l2.26 0 l6.9 8.7 l0 -8.7 z M67.82000000000001 6 c3.98 0 7.1 3.12 7.1 6.92 c0 3.96 -3.12 7.08 -7.1 7.08 l-5 0 l0 -14 l5 0 z M67.80000000000001 17.240000000000002 c2.68 0 4.12 -1.94 4.12 -4.32 c0 -2.22 -1.44 -4.16 -4.12 -4.16 l-2.06 0 l0 8.48 l2.06 0 z M88.1 20 l-1.06 -2.5 l-6.76 0 l-1.06 2.5 l-3.1 0 l6.22 -14 l2.64 0 l6.24 14 l-3.12 0 z M81.3 15.120000000000001 l4.72 0 l-2.36 -5.54 z"/></g>
			</g>
		</svg>
	